<svg xmlns="http://www.w3.org/2000/svg" width="200" height="200" viewBox="0 0 282.669 251.261">
  <path id="Icon_awesome-desktop" data-name="Icon awesome-desktop" d="M259.113,0H23.556A23.562,23.562,0,0,0,0,23.556V180.594A23.562,23.562,0,0,0,23.556,204.15h94.223l-7.852,23.556H74.593a11.778,11.778,0,1,0,0,23.556H208.075a11.778,11.778,0,1,0,0-23.556H172.742L164.89,204.15h94.223a23.562,23.562,0,0,0,23.556-23.556V23.556A23.562,23.562,0,0,0,259.113,0Zm-7.852,172.742H31.408V31.408H251.261Z" fill="#fff"/>
</svg>
