<svg xmlns="http://www.w3.org/2000/svg" width="200" height="200" viewBox="0 0 250.881 250.883">
  <path id="Icon_awesome-pencil-alt" data-name="Icon awesome-pencil-alt" d="M243.974,69.6l-22.59,22.59a5.886,5.886,0,0,1-8.33,0L158.66,37.8a5.886,5.886,0,0,1,0-8.33l22.59-22.59a23.572,23.572,0,0,1,33.273,0l29.45,29.451A23.483,23.483,0,0,1,243.974,69.6ZM139.255,48.873,10.575,177.554.186,237.092a11.775,11.775,0,0,0,13.623,13.623l59.538-10.438L202.027,111.6a5.886,5.886,0,0,0,0-8.33L147.635,48.873a5.945,5.945,0,0,0-8.379,0ZM60.8,166.528a6.832,6.832,0,0,1,0-9.7l75.464-75.464a6.861,6.861,0,0,1,9.7,9.7L70.5,166.528a6.832,6.832,0,0,1-9.7,0Zm-17.69,41.211H66.633v17.788l-31.607,5.537-15.24-15.24,5.537-31.607H43.112Z" transform="translate(-0.002 -0.005)" fill="#fff"/>
</svg>
