<svg xmlns="http://www.w3.org/2000/svg" width="200" height="200" viewBox="0 0 363.588 231.374">
  <path id="Icon_material-people-outline" data-name="Icon material-people-outline" d="M257.664,139.714c-19.832,0-50.737,5.619-74.37,16.527-23.633-11.073-54.538-16.527-74.37-16.527C73.061,139.714,1.5,157.563,1.5,193.426v45.448H365.088V193.426C365.088,157.563,293.527,139.714,257.664,139.714Zm-66.107,74.37H26.29V193.426c0-8.924,42.308-28.922,82.634-28.922s82.634,20,82.634,28.922Zm148.741,0H216.347V193.426c0-7.6-3.305-14.213-8.594-20.163,14.544-4.958,32.392-8.759,49.911-8.759,40.325,0,82.634,20,82.634,28.922Zm-231.374-90.9A57.844,57.844,0,1,0,51.08,65.344,57.907,57.907,0,0,0,108.924,123.187Zm0-90.9A33.053,33.053,0,1,1,75.87,65.344,33.151,33.151,0,0,1,108.924,32.29Zm148.74,90.9a57.844,57.844,0,1,0-57.844-57.844A57.907,57.907,0,0,0,257.664,123.187Zm0-90.9a33.053,33.053,0,1,1-33.053,33.053A33.151,33.151,0,0,1,257.664,32.29Z" transform="translate(-1.5 -7.5)" fill="#fff"/>
</svg>
