<svg xmlns="http://www.w3.org/2000/svg" width="20" height="20" viewBox="0 0 37.128 37.004">
  <path id="Icon_awesome-search-plus" data-name="Icon awesome-search-plus" d="M21.375,13.5v2.25a.846.846,0,0,1-.844.844H16.594v3.938a.846.846,0,0,1-.844.844H13.5a.846.846,0,0,1-.844-.844V16.594H8.719a.846.846,0,0,1-.844-.844V13.5a.846.846,0,0,1,.844-.844h3.938V8.719a.846.846,0,0,1,.844-.844h2.25a.846.846,0,0,1,.844.844v3.938h3.938A.846.846,0,0,1,21.375,13.5ZM35.508,33.518l-1.99,1.99a1.681,1.681,0,0,1-2.384,0L24.117,28.5a1.686,1.686,0,0,1-.492-1.2V26.156a14.618,14.618,0,1,1,2.531-2.531H27.3a1.686,1.686,0,0,1,1.2.492l7.01,7.01A1.7,1.7,0,0,1,35.508,33.518ZM24.188,14.625a9.563,9.563,0,1,0-9.562,9.563A9.554,9.554,0,0,0,24.188,14.625Z" transform="translate(0.5 0.5)" fill="#fff" stroke="#d0d0d0" stroke-width="1"/>
</svg>
